<svg aria-hidden="true" style="position: absolute; width: 0; height: 0; overflow: hidden;" version="1.1" xmlns="http://www.w3.org/2000/svg" xmlns:xlink="http://www.w3.org/1999/xlink">
<defs>
<symbol id="icon-facebook" viewBox="0 0 32 32">
<path d="M30.72 0h-29.44c-0.708 0-1.28 0.572-1.28 1.28v29.44c0 0.708 0.572 1.28 1.28 1.28h29.44c0.708 0 1.28-0.572 1.28-1.28v-29.44c0-0.708-0.572-1.28-1.28-1.28zM24.612 11.588c0.012 0.188 0.012 0.384 0.012 0.576 0 5.872-4.472 12.636-12.644 12.636-2.52 0-4.856-0.732-6.824-1.992 0.36 0.040 0.704 0.056 1.072 0.056 2.080 0 3.992-0.704 5.516-1.896-1.952-0.040-3.592-1.32-4.152-3.080 0.684 0.1 1.3 0.1 2.004-0.080-1.005-0.204-1.909-0.75-2.557-1.545s-1.001-1.79-0.999-2.815v-0.056c0.588 0.332 1.28 0.536 2.004 0.564-0.609-0.406-1.108-0.955-1.453-1.6s-0.526-1.365-0.527-2.096c0-0.828 0.216-1.584 0.604-2.24 1.116 1.373 2.508 2.497 4.086 3.297s3.307 1.259 5.074 1.347c-0.628-3.020 1.628-5.464 4.34-5.464 1.28 0 2.432 0.536 3.244 1.4 1.004-0.188 1.964-0.564 2.82-1.068-0.332 1.028-1.028 1.896-1.952 2.444 0.896-0.096 1.76-0.344 2.56-0.692-0.604 0.888-1.36 1.676-2.228 2.304z"></path>
</symbol>
<symbol id="icon-Vector-2" viewBox="0 0 32 32">
<path d="M0 0v32h32v-32h-32zM23.019 4.176c0.232-0.005 0.475 0.003 0.725 0.020 0.919 0.001 1.88 0.084 2.832 0.168l-0.103 3.789h-2.559c-1.2-0.027-1.633 0.439-1.672 1.793v2.977h4.334l-0.172 4.059h-4.162v11.299h-4.228v-11.299h-2.936v-4.059h2.936v-3.484c0-2.512 1.062-4.111 3.154-4.922 0.537-0.211 1.154-0.325 1.851-0.34z"></path>
</symbol>
</defs>
</svg>
